<svg width="40" height="39" viewBox="0 0 40 39" fill="none" xmlns="http://www.w3.org/2000/svg">
<g id="material-symbols-light:login-outline">
<path id="Vector" d="M26.3 32.1004V30.5167H36.975C37.2306 30.5167 37.4656 30.4153 37.68 30.2126C37.8933 30.0088 38 29.7855 38 29.5427V9.31846C38 9.07562 37.8933 8.85232 37.68 8.64855C37.4656 8.44583 37.2306 8.34447 36.975 8.34447H26.3V6.76074H36.9733C37.74 6.76074 38.38 7.00516 38.8933 7.49401C39.4078 7.9818 39.665 8.58995 39.665 9.31846V29.5427C39.665 30.2712 39.4083 30.8793 38.895 31.3671C38.3806 31.856 37.74 32.1004 36.9733 32.1004H26.3ZM25.1167 25.0338L23.945 23.8951L27.8117 20.2224H13V18.6387H27.8117L23.945 14.9645L25.115 13.8273L31.0133 19.4306L25.1167 25.0338Z" fill="black"/>
</g>
</svg>
