<svg width="60" height="60" viewBox="0 0 60 60" fill="none" xmlns="http://www.w3.org/2000/svg">
<g id="quiz">
<path id="icon" fill-rule="evenodd" clip-rule="evenodd" d="M12.5 34.3624C12.5 26.4302 18.9302 20 26.8624 20C34.7945 20 41.2248 26.4302 41.2248 34.3624C41.2248 37.5888 40.1609 40.5659 38.3656 42.9634L40.6236 45.2224C40.8196 45.4117 40.9759 45.6381 41.0834 45.8884C41.191 46.1387 41.2476 46.408 41.2499 46.6804C41.2523 46.9528 41.2004 47.223 41.0972 47.4752C40.994 47.7273 40.8417 47.9564 40.649 48.149C40.4564 48.3417 40.2273 48.494 39.9752 48.5972C39.723 48.7004 39.4528 48.7523 39.1804 48.7499C38.908 48.7476 38.6387 48.691 38.3884 48.5834C38.1381 48.4759 37.9117 48.3196 37.7224 48.1236L35.4634 45.8656C32.9823 47.7262 29.9636 48.7297 26.8624 48.7248C18.9302 48.7248 12.5 42.2945 12.5 34.3624ZM35.4214 40.0201L32.4165 37.0143C32.2259 36.8238 31.9996 36.6727 31.7506 36.5697C31.5016 36.4666 31.2347 36.4137 30.9652 36.4137C30.6957 36.4138 30.4289 36.467 30.1799 36.5702C29.931 36.6735 29.7048 36.8247 29.5143 37.0153C29.3238 37.206 29.1727 37.4322 29.0697 37.6813C28.9666 37.9303 28.9137 38.1972 28.9137 38.4667C28.9139 39.0109 29.1303 39.5328 29.5153 39.9176L32.5201 42.9214C30.8429 44.033 28.8746 44.6244 26.8624 44.6212C21.1964 44.6212 16.6035 40.0284 16.6035 34.3624C16.6035 28.6964 21.1964 24.1035 26.8624 24.1035C32.5284 24.1035 37.1212 28.6964 37.1212 34.3624C37.1212 36.4531 36.4955 38.3982 35.4214 40.0201Z" fill="white"/>
</g>
</svg>
