<svg width="38" height="38" viewBox="0 0 38 38" fill="none" xmlns="http://www.w3.org/2000/svg">
<g id="heroicons:hand-thumb-down">
<path id="Vector" d="M11.8718 24.1458H6.92233C5.29783 24.1458 3.84275 23.047 3.67017 21.4304C3.59833 20.7546 3.56239 20.0754 3.5625 19.3958C3.5625 14.8865 5.13317 10.7445 7.75675 7.48756C8.37108 6.7244 9.3195 6.33331 10.298 6.33331H16.6567C17.4224 6.33285 18.1832 6.45581 18.9098 6.69748L23.8403 8.34415C24.5668 8.58582 25.3276 8.70878 26.0933 8.70831H28.1422M11.8718 24.1458C12.8503 24.1458 13.4425 25.2921 13.0213 26.1756C12.2644 27.7674 11.8727 29.5082 11.875 31.2708C11.875 32.2156 12.2503 33.1218 12.9184 33.7899C13.5865 34.458 14.4927 34.8333 15.4375 34.8333C15.7524 34.8333 16.0545 34.7082 16.2772 34.4855C16.4999 34.2628 16.625 33.9608 16.625 33.6458V32.6436C16.625 31.7363 16.7992 30.8386 17.1348 29.9962C17.6162 28.7929 18.6073 27.8904 19.7521 27.2808C21.5095 26.343 23.0518 25.0488 24.2804 23.4808C25.0689 22.477 26.2216 21.7708 27.4978 21.7708H28.1057M11.8718 24.1458H15.3583M28.1422 8.70831C28.158 8.78748 28.1865 8.86665 28.2229 8.94265C29.1898 10.9007 29.691 13.0558 29.6875 15.2396C29.6915 17.512 29.149 19.752 28.1057 21.7708M28.1422 8.70831C28.0218 8.1304 28.4319 7.52081 29.0526 7.52081H30.4903C31.8978 7.52081 33.2025 8.34098 33.6126 9.68681C34.1493 11.4443 34.4375 13.3079 34.4375 15.2396C34.4375 17.6985 33.9704 20.0466 33.1218 22.2031C32.6373 23.4286 31.4022 24.1458 30.0849 24.1458H28.4177C27.6703 24.1458 27.2381 23.2655 27.626 22.6258C27.7957 22.3464 27.9557 22.0613 28.1057 21.7708" stroke="black" stroke-width="2" stroke-linecap="round" stroke-linejoin="round"/>
</g>
</svg>
