<svg width="50" height="50" viewBox="0 0 50 50" fill="none" xmlns="http://www.w3.org/2000/svg">
<g id="fluent:person-note-20-regular">
<path id="Vector" d="M25 5C22.3478 5 19.8043 6.05357 17.9289 7.92893C16.0536 9.8043 15 12.3478 15 15C15 17.6522 16.0536 20.1957 17.9289 22.0711C19.8043 23.9464 22.3478 25 25 25C27.6522 25 30.1957 23.9464 32.0711 22.0711C33.9464 20.1957 35 17.6522 35 15C35 12.3478 33.9464 9.8043 32.0711 7.92893C30.1957 6.05357 27.6522 5 25 5ZM17.5 15C17.5 13.0109 18.2902 11.1032 19.6967 9.6967C21.1032 8.29018 23.0109 7.5 25 7.5C26.9891 7.5 28.8968 8.29018 30.3033 9.6967C31.7098 11.1032 32.5 13.0109 32.5 15C32.5 16.9891 31.7098 18.8968 30.3033 20.3033C28.8968 21.7098 26.9891 22.5 25 22.5C23.0109 22.5 21.1032 21.7098 19.6967 20.3033C18.2902 18.8968 17.5 16.9891 17.5 15ZM12.5225 27.5C11.8641 27.4974 11.2116 27.6247 10.6026 27.8748C9.99348 28.1249 9.43976 28.4927 8.97315 28.9572C8.50654 29.4217 8.13621 29.9738 7.88342 30.5818C7.63062 31.1897 7.50032 31.8416 7.5 32.5C7.5 36.7275 9.5825 39.915 12.8375 41.9925C15.5525 43.7225 19.07 44.68 22.9025 44.9325C22.6349 44.1495 22.4989 43.3275 22.5 42.5V42.395C19.205 42.11 16.33 41.2525 14.1825 39.8825C11.5575 38.2075 10 35.775 10 32.5C10 31.1175 11.12 30 12.5225 30H22.925C23.2525 29.0675 23.7625 28.2225 24.4075 27.5H12.5225ZM25 32.5C25 31.1739 25.5268 29.9021 26.4645 28.9645C27.4021 28.0268 28.6739 27.5 30 27.5H42.5C43.8261 27.5 45.0979 28.0268 46.0355 28.9645C46.9732 29.9021 47.5 31.1739 47.5 32.5V42.5C47.5 43.8261 46.9732 45.0979 46.0355 46.0355C45.0979 46.9732 43.8261 47.5 42.5 47.5H30C28.6739 47.5 27.4021 46.9732 26.4645 46.0355C25.5268 45.0979 25 43.8261 25 42.5V32.5ZM41.25 40H31.25C30.9185 40 30.6005 40.1317 30.3661 40.3661C30.1317 40.6005 30 40.9185 30 41.25C30 41.5815 30.1317 41.8995 30.3661 42.1339C30.6005 42.3683 30.9185 42.5 31.25 42.5H41.25C41.5815 42.5 41.8995 42.3683 42.1339 42.1339C42.3683 41.8995 42.5 41.5815 42.5 41.25C42.5 40.9185 42.3683 40.6005 42.1339 40.3661C41.8995 40.1317 41.5815 40 41.25 40ZM31.25 32.5C30.9185 32.5 30.6005 32.6317 30.3661 32.8661C30.1317 33.1005 30 33.4185 30 33.75C30 34.0815 30.1317 34.3995 30.3661 34.6339C30.6005 34.8683 30.9185 35 31.25 35H41.25C41.5815 35 41.8995 34.8683 42.1339 34.6339C42.3683 34.3995 42.5 34.0815 42.5 33.75C42.5 33.4185 42.3683 33.1005 42.1339 32.8661C41.8995 32.6317 41.5815 32.5 41.25 32.5H31.25Z" fill="black"/>
</g>
</svg>
