<svg width="66" height="66" viewBox="0 0 66 66" fill="none" xmlns="http://www.w3.org/2000/svg">
<g filter="url(#filter0_d_146_1836)">
<circle cx="33" cy="30" r="25" fill="#CDC1FF"/>
</g>
<path d="M39.3844 18.3969C40.1696 17.6114 41.2243 17.154 42.3343 17.1175C43.4444 17.0809 44.5268 17.4679 45.3621 18.2L45.5721 18.3969L46.6031 19.4279C47.3882 20.2131 47.8453 21.2675 47.8819 22.3772C47.9184 23.4869 47.5317 24.569 46.8 25.4042L46.6031 25.6142L30.2523 41.9665C30.0211 42.1977 29.7411 42.3741 29.4327 42.4827L29.1965 42.5513L22.701 44.0504C22.4735 44.103 22.2366 44.1002 22.0104 44.0423C21.7841 43.9844 21.5751 43.8731 21.4008 43.7176C21.2265 43.5622 21.092 43.3672 21.0087 43.149C20.9254 42.9308 20.8956 42.6958 20.9219 42.4638L20.951 42.299L22.4488 35.8021C22.5227 35.4834 22.6673 35.1854 22.8717 34.93L23.0335 34.7477L39.3844 18.3969ZM38.3533 23.5521L25.2429 36.6625L24.3154 40.6846L28.3375 39.7557L41.4479 26.6452L38.3533 23.5521ZM43.51 20.459C43.2589 20.2079 42.9248 20.0571 42.5704 20.0348C42.216 20.0125 41.8656 20.1203 41.585 20.3379L41.4479 20.459L40.4154 21.49L43.51 24.5832L44.541 23.5521C44.7921 23.301 44.943 22.9669 44.9653 22.6125C44.9875 22.2581 44.8797 21.9077 44.6621 21.6271L44.541 21.49L43.51 20.459Z" fill="white"/>
<defs>
<filter id="filter0_d_146_1836" x="0" y="0" width="66" height="66" filterUnits="userSpaceOnUse" color-interpolation-filters="sRGB">
<feFlood flood-opacity="0" result="BackgroundImageFix"/>
<feColorMatrix in="SourceAlpha" type="matrix" values="0 0 0 0 0 0 0 0 0 0 0 0 0 0 0 0 0 0 127 0" result="hardAlpha"/>
<feOffset dy="3"/>
<feGaussianBlur stdDeviation="4"/>
<feColorMatrix type="matrix" values="0 0 0 0 0 0 0 0 0 0 0 0 0 0 0 0 0 0 0.24 0"/>
<feBlend mode="normal" in2="BackgroundImageFix" result="effect1_dropShadow_146_1836"/>
<feBlend mode="normal" in="SourceGraphic" in2="effect1_dropShadow_146_1836" result="shape"/>
</filter>
</defs>
</svg>
