<svg width="40" height="40" viewBox="0 0 40 40" fill="none" xmlns="http://www.w3.org/2000/svg">
<g id="fluent:save-16-regular">
<path id="Vector" d="M10 7.5C9.33696 7.5 8.70107 7.76339 8.23223 8.23223C7.76339 8.70107 7.5 9.33696 7.5 10V30C7.5 30.663 7.76339 31.2989 8.23223 31.7678C8.70107 32.2366 9.33696 32.5 10 32.5V23.75C10 22.7554 10.3951 21.8016 11.0983 21.0983C11.8016 20.3951 12.7554 20 13.75 20H26.25C27.2446 20 28.1984 20.3951 28.9017 21.0983C29.6049 21.8016 30 22.7554 30 23.75V32.5C30.663 32.5 31.2989 32.2366 31.7678 31.7678C32.2366 31.2989 32.5 30.663 32.5 30V14.0525C32.4999 13.3895 32.2364 12.7537 31.7675 12.285L27.715 8.2325C27.2463 7.76363 26.6105 7.50014 25.9475 7.5H25V11.25C25 12.2446 24.6049 13.1984 23.9017 13.9017C23.1984 14.6049 22.2446 15 21.25 15H16.25C15.2554 15 14.3016 14.6049 13.5983 13.9017C12.8951 13.1984 12.5 12.2446 12.5 11.25V7.5H10ZM15 7.5V11.25C15 11.5815 15.1317 11.8995 15.3661 12.1339C15.6005 12.3683 15.9185 12.5 16.25 12.5H21.25C21.5815 12.5 21.8995 12.3683 22.1339 12.1339C22.3683 11.8995 22.5 11.5815 22.5 11.25V7.5H15ZM27.5 32.5V23.75C27.5 23.4185 27.3683 23.1005 27.1339 22.8661C26.8995 22.6317 26.5815 22.5 26.25 22.5H13.75C13.4185 22.5 13.1005 22.6317 12.8661 22.8661C12.6317 23.1005 12.5 23.4185 12.5 23.75V32.5H27.5ZM5 10C5 8.67392 5.52678 7.40215 6.46447 6.46447C7.40215 5.52678 8.67392 5 10 5H25.9475C27.2735 5.00028 28.545 5.52725 29.4825 6.465L33.535 10.5175C34.4727 11.455 34.9997 12.7265 35 14.0525V30C35 31.3261 34.4732 32.5979 33.5355 33.5355C32.5979 34.4732 31.3261 35 30 35H10C8.67392 35 7.40215 34.4732 6.46447 33.5355C5.52678 32.5979 5 31.3261 5 30V10Z" fill="black"/>
</g>
</svg>
