<svg width="26" height="22" viewBox="0 0 26 22" fill="none" xmlns="http://www.w3.org/2000/svg">
<g id="icon_menu">
<path id="icon_menu_2" d="M0.736755 2.06335L0.379716 2.37754L0.736755 2.06335C0.590921 1.89763 0.5 1.66062 0.5 1.40217C0.5 1.14372 0.590921 0.90672 0.736755 0.740995C0.880778 0.577326 1.06137 0.5 1.23387 0.5H24.2661C24.4386 0.5 24.6192 0.577327 24.7632 0.740995C24.9091 0.906719 25 1.14372 25 1.40217C25 1.66062 24.9091 1.89763 24.7632 2.06335C24.6192 2.22702 24.4386 2.30435 24.2661 2.30435H1.23387C1.06137 2.30435 0.880778 2.22702 0.736755 2.06335ZM24.7632 10.0888C24.9091 10.2545 25 10.4916 25 10.75C25 11.0084 24.9091 11.2455 24.7632 11.4112C24.6192 11.5748 24.4386 11.6522 24.2661 11.6522H1.23387C1.06137 11.6522 0.880778 11.5748 0.736755 11.4112C0.590921 11.2455 0.5 11.0084 0.5 10.75C0.5 10.4916 0.590921 10.2545 0.736755 10.0888C0.880779 9.92515 1.06137 9.84783 1.23387 9.84783H24.2661C24.4386 9.84783 24.6192 9.92515 24.7632 10.0888ZM24.7632 19.4366C24.9091 19.6024 25 19.8394 25 20.0978C25 20.3563 24.9091 20.5933 24.7632 20.759C24.6192 20.9227 24.4386 21 24.2661 21H1.23387C1.06137 21 0.880778 20.9227 0.736755 20.759C0.590921 20.5933 0.5 20.3563 0.5 20.0978C0.5 19.8394 0.590921 19.6024 0.736755 19.4366C0.880778 19.273 1.06137 19.1957 1.23387 19.1957H24.2661C24.4386 19.1957 24.6192 19.273 24.7632 19.4366Z" fill="black" stroke="black"/>
</g>
</svg>
