<svg width="39" height="37" viewBox="0 0 39 37" fill="none" xmlns="http://www.w3.org/2000/svg">
<g id="note">
<path id="icon" d="M30.2275 18.4868L32.4325 16.2487C33.2025 15.4671 34.1825 15.0408 35.25 14.9342V13.1579L24.75 2.5H7.25C5.3075 2.5 3.75 4.08092 3.75 6.05263V30.9211C3.75 31.8633 4.11875 32.7669 4.77513 33.4331C5.4315 34.0994 6.32174 34.4737 7.25 34.4737H17.75V31.152L17.9775 30.9211H7.25V6.05263H19.5V18.4868H30.2275ZM23 5.16447L32.625 14.9342H23V5.16447ZM31.9775 21.7375L35.5475 25.3612L24.82 36.25H21.25V32.6263L31.9775 21.7375ZM38.4875 22.377L36.7725 24.1178L33.2025 20.4941L34.9175 18.7533C35.25 18.398 35.8275 18.398 36.1775 18.7533L38.4875 21.098C38.8375 21.4533 38.8375 22.0395 38.4875 22.377Z" fill="white"/>
</g>
</svg>
