<svg width="25" height="25" viewBox="0 0 25 25" fill="none" xmlns="http://www.w3.org/2000/svg">
<g id="arrow">
<path id="icon" d="M20.3095 8.32207L12.5001 15.9346L4.69073 8.32207C4.55121 8.18578 4.3639 8.10947 4.16885 8.10947C3.97381 8.10947 3.7865 8.18578 3.64698 8.32207C3.57942 8.38827 3.52575 8.46728 3.48911 8.55447C3.45247 8.64167 3.43359 8.7353 3.43359 8.82989C3.43359 8.92447 3.45247 9.0181 3.48911 9.1053C3.52575 9.1925 3.57942 9.27151 3.64698 9.3377L11.9548 17.4377C12.1007 17.5799 12.2964 17.6595 12.5001 17.6595C12.7038 17.6595 12.8995 17.5799 13.0454 17.4377L21.3532 9.33926C21.4213 9.27302 21.4753 9.19382 21.5123 9.10633C21.5492 9.01884 21.5682 8.92485 21.5682 8.82989C21.5682 8.73493 21.5492 8.64093 21.5123 8.55344C21.4753 8.46596 21.4213 8.38676 21.3532 8.32051C21.2137 8.18422 21.0264 8.10791 20.8314 8.10791C20.6363 8.10791 20.449 8.18422 20.3095 8.32051V8.32207Z" fill="black"/>
</g>
</svg>
