<svg width="38" height="38" viewBox="0 0 38 38" fill="none" xmlns="http://www.w3.org/2000/svg">
<g id="heroicons:hand-thumb-down">
<path id="Vector" d="M11.8718 24.146H6.92233C5.29783 24.146 3.84275 23.0472 3.67017 21.4306C3.59833 20.7548 3.56239 20.0756 3.5625 19.396C3.5625 14.8867 5.13317 10.7447 7.75675 7.48775C8.37108 6.72458 9.3195 6.3335 10.298 6.3335H16.6567C17.4224 6.33303 18.1832 6.456 18.9098 6.69766L23.8403 8.34433C24.5668 8.586 25.3276 8.70897 26.0933 8.7085H28.1422M11.8718 24.146C12.8503 24.146 13.4425 25.2923 13.0213 26.1758C12.2644 27.7676 11.8727 29.5084 11.875 31.271C11.875 32.2158 12.2503 33.122 12.9184 33.7901C13.5865 34.4582 14.4927 34.8335 15.4375 34.8335C15.7524 34.8335 16.0545 34.7084 16.2772 34.4857C16.4999 34.263 16.625 33.9609 16.625 33.646V32.6437C16.625 31.7365 16.7992 30.8387 17.1348 29.9964C17.6162 28.7931 18.6073 27.8906 19.7521 27.281C21.5095 26.3432 23.0518 25.049 24.2804 23.481C25.0689 22.4772 26.2216 21.771 27.4978 21.771H28.1057M11.8718 24.146H15.3583M28.1422 8.7085C28.158 8.78766 28.1865 8.86683 28.2229 8.94283C29.1898 10.9009 29.691 13.056 29.6875 15.2397C29.6915 17.5122 29.149 19.7522 28.1057 21.771M28.1422 8.7085C28.0218 8.13058 28.4319 7.521 29.0526 7.521H30.4903C31.8978 7.521 33.2025 8.34116 33.6126 9.687C34.1493 11.4445 34.4375 13.3081 34.4375 15.2397C34.4375 17.6987 33.9704 20.0467 33.1218 22.2032C32.6373 23.4287 31.4022 24.146 30.0849 24.146H28.4177C27.6703 24.146 27.2381 23.2657 27.626 22.626C27.7957 22.3466 27.9557 22.0614 28.1057 21.771" stroke="#2A9D8F" stroke-width="3.2" stroke-linecap="round" stroke-linejoin="round"/>
</g>
</svg>
