<svg width="31" height="31" viewBox="0 0 31 31" fill="none" xmlns="http://www.w3.org/2000/svg">
<g id="eva:attach-fill">
<path id="Vector" d="M11.9997 27.125C10.9326 27.1199 9.87709 26.9025 8.89473 26.4856C7.91237 26.0687 7.02274 25.4606 6.27762 24.6967C5.5381 23.9958 4.94404 23.1559 4.52946 22.2251C4.11487 21.2944 3.88788 20.291 3.86149 19.2725C3.83509 18.2539 4.00981 17.2401 4.37564 16.2892C4.74147 15.3382 5.29122 14.4687 5.99346 13.7304L15.5001 4.13333C16.0078 3.62658 16.6129 3.22797 17.2789 2.96157C17.9449 2.69517 18.658 2.5665 19.3751 2.58333C20.1433 2.58595 20.9032 2.74148 21.6107 3.04087C22.3181 3.34025 22.9589 3.77749 23.4955 4.32708C24.5637 5.35556 25.1832 6.76383 25.2195 8.24623C25.2558 9.72862 24.7059 11.1655 23.6893 12.245L14.131 21.8421C13.8248 22.1503 13.4605 22.3946 13.0592 22.5609C12.6578 22.7272 12.2275 22.8122 11.793 22.8108C11.3237 22.8115 10.8591 22.7181 10.4265 22.5361C9.99388 22.3542 9.6021 22.0875 9.27429 21.7517C8.61906 21.1173 8.24066 20.2499 8.22131 19.3381C8.20197 18.4263 8.54323 17.5437 9.17096 16.8821L17.993 8.02125C18.2441 7.8545 18.5456 7.7808 18.8453 7.81292C19.145 7.84504 19.424 7.98096 19.634 8.19712C19.8441 8.41329 19.9719 8.69611 19.9954 8.9966C20.0189 9.29708 19.9365 9.59632 19.7626 9.8425L10.9405 18.7033C10.7934 18.8806 10.7218 19.1085 10.7412 19.338C10.7605 19.5675 10.8692 19.7803 11.0439 19.9304C11.2256 20.1134 11.4706 20.2198 11.7285 20.2275C11.824 20.2289 11.9188 20.2113 12.0075 20.1758C12.0961 20.1404 12.1769 20.0877 12.2451 20.0208L21.7905 10.4237C22.3263 9.82852 22.6064 9.04636 22.5701 8.24632C22.5339 7.44629 22.1842 6.69266 21.5968 6.14833C21.0512 5.58186 20.3092 5.24605 19.5235 5.21001C18.7378 5.17397 17.9682 5.44044 17.373 5.95458L7.82762 15.5C7.36346 15.9985 7.00245 16.584 6.76539 17.2226C6.52833 17.8612 6.41988 18.5403 6.44629 19.221C6.4727 19.9016 6.63345 20.5704 6.91928 21.1887C7.20511 21.807 7.61039 22.3627 8.11179 22.8237C8.6146 23.345 9.21625 23.7608 9.88158 24.0469C10.5469 24.333 11.2626 24.4836 11.9868 24.49C12.6112 24.4951 13.2305 24.3767 13.809 24.1418C14.3876 23.9068 14.914 23.5598 15.358 23.1208L24.9035 13.5238C25.023 13.4033 25.1652 13.3076 25.3217 13.2421C25.4783 13.1766 25.6463 13.1426 25.816 13.142C25.9857 13.1414 26.1539 13.1742 26.3109 13.2386C26.4679 13.303 26.6107 13.3977 26.7312 13.5173C26.8516 13.6369 26.9473 13.779 27.0128 13.9356C27.0783 14.0922 27.1123 14.2601 27.1129 14.4298C27.1135 14.5995 27.0807 14.7677 27.0163 14.9247C26.9519 15.0818 26.8572 15.2246 26.7376 15.345L17.1922 24.9421C16.5145 25.6318 15.7064 26.1799 14.815 26.5547C13.9236 26.9294 12.9667 27.1233 11.9997 27.125Z" fill="black"/>
</g>
</svg>
