<svg width="251" height="107" viewBox="0 0 251 107" fill="none" xmlns="http://www.w3.org/2000/svg">
<g filter="url(#filter0_dd_337_1898)">
<rect x="5" y="1" width="241" height="73" rx="20" fill="#F0F8FF"/>
<path d="M61.7408 97.9347L39.4029 70.9972L62.2754 62.9444L61.7408 97.9347Z" fill="#F0F8FF"/>
<path d="M35.6438 21.136V29.008H34.6598V21.136H35.6438ZM33.3878 26.692L32.9078 27.472C31.6718 27.04 30.6878 26.152 30.1958 25.024C29.7398 26.248 28.7438 27.22 27.4718 27.676L26.9558 26.908C28.5878 26.344 29.6798 24.94 29.6798 23.404V22.816H27.2198V22.024H33.1238V22.816H30.6878V23.404C30.6878 24.856 31.8038 26.164 33.3878 26.692ZM29.7038 30.844H35.9678V31.648H28.7198V28.264H29.7038V30.844ZM44.0788 25.84L44.1868 26.632C42.7108 26.932 41.4388 27.004 39.1828 27.004H38.3428V22.06H43.1068V22.852H39.3268V26.2C41.4508 26.2 42.6748 26.116 44.0788 25.84ZM40.4908 28.132V30.844H46.6828V31.648H39.5068V28.132H40.4908ZM46.2028 24.316H47.7988V25.132H46.2028V28.912H45.2188V21.124H46.2028V24.316ZM56.7619 27.76V25.78H54.9859V24.976H56.7619V23.848H54.9859V23.044H56.7619V21.136H57.7579V27.76H56.7619ZM51.2299 22.732V26.284C51.7579 26.272 52.3099 26.248 52.8499 26.224V22.732H51.2299ZM55.2139 26.032L55.2739 26.764C53.1979 27.088 50.7739 27.124 49.0339 27.124L48.9259 26.308C49.3339 26.308 49.8019 26.308 50.2819 26.296V22.732H49.2139V21.94H54.8779V22.732H53.8099V26.176C54.2899 26.14 54.7699 26.092 55.2139 26.032ZM54.2059 31.108C55.8379 31.108 56.8099 30.676 56.8099 29.92C56.8099 29.188 55.8379 28.744 54.2059 28.744C52.5739 28.744 51.6019 29.188 51.6019 29.92C51.6019 30.676 52.5739 31.108 54.2059 31.108ZM54.2059 27.988C56.4259 27.988 57.7819 28.684 57.7819 29.92C57.7819 31.168 56.4259 31.876 54.2059 31.876C51.9739 31.876 50.6179 31.168 50.6179 29.92C50.6179 28.684 51.9739 27.988 54.2059 27.988ZM60.505 22.276H65.425C65.425 25.336 64.021 28.108 60.541 29.848L60.001 29.08C62.749 27.7 64.225 25.636 64.453 23.092H60.505V22.276ZM69.937 25.492V26.308H68.209V31.888H67.225V21.124H68.209V25.492H69.937ZM74.46 21.916C76.14 21.916 77.34 22.936 77.34 24.448C77.34 25.948 76.14 26.98 74.46 26.98C72.792 26.98 71.58 25.948 71.58 24.448C71.58 22.936 72.792 21.916 74.46 21.916ZM74.46 22.756C73.344 22.756 72.54 23.44 72.54 24.448C72.54 25.444 73.344 26.14 74.46 26.14C75.576 26.14 76.38 25.444 76.38 24.448C76.38 23.44 75.576 22.756 74.46 22.756ZM78.756 21.124H79.74V31.912H78.756V21.124ZM71.16 29.548L71.04 28.72C72.996 28.72 75.696 28.708 78.048 28.348L78.132 29.08C75.708 29.536 73.104 29.548 71.16 29.548ZM87.0789 24.652C87.0789 25.888 88.3389 26.692 90.0549 26.692C91.7709 26.692 93.0189 25.888 93.0189 24.652C93.0189 23.416 91.7709 22.612 90.0549 22.612C88.3389 22.612 87.0789 23.416 87.0789 24.652ZM90.5469 29.692H94.9509V30.508H85.1709V29.692H89.5509V27.448C87.5469 27.304 86.1309 26.236 86.1309 24.652C86.1309 22.936 87.7749 21.832 90.0549 21.832C92.3229 21.832 93.9549 22.936 93.9549 24.652C93.9549 26.236 92.5509 27.304 90.5469 27.448V29.692ZM102.45 25.324L102.558 26.116C101.082 26.428 99.8099 26.5 97.5539 26.5H96.7139V21.832H101.454V22.624H97.6979V25.684C99.8219 25.684 101.046 25.612 102.45 25.324ZM103.602 30.904V29.56H98.7659V30.904H103.602ZM103.602 28.78V27.436H104.574V31.708H97.7939V27.436H98.7659V28.78H103.602ZM106.17 23.644V24.46H104.574V26.86H103.59V21.112H104.574V23.644H106.17ZM114.773 24.616V22.42H109.469V24.616H114.773ZM115.745 21.628V25.408H108.509V21.628H115.745ZM109.469 28.576V30.844H115.925V31.648H108.485V28.576H109.469ZM107.237 26.632H117.017V27.424H112.697V29.596H111.713V27.424H107.237V26.632ZM121.456 23.188V24.16C121.456 26.032 122.26 27.904 123.748 28.744L123.148 29.464C122.104 28.84 121.36 27.688 120.988 26.32C120.616 27.796 119.836 29.056 118.768 29.728L118.168 28.996C119.668 28.096 120.508 26.14 120.508 24.16V23.188H118.468V22.384H123.376V23.188H121.456ZM124.336 24.988V21.364H125.272V31.324H124.336V25.792H122.56V24.988H124.336ZM126.496 21.112H127.444V31.876H126.496V21.112ZM130.659 24.352C130.659 25.372 131.451 26.044 132.555 26.044C133.647 26.044 134.439 25.372 134.439 24.352C134.439 23.344 133.647 22.648 132.555 22.648C131.451 22.648 130.659 23.344 130.659 24.352ZM133.047 26.848V28.672C134.031 28.624 135.027 28.564 135.951 28.432L136.035 29.152C133.755 29.536 131.247 29.572 129.351 29.572L129.219 28.744C130.071 28.744 131.055 28.732 132.063 28.708V26.848C130.659 26.68 129.699 25.696 129.699 24.352C129.699 22.84 130.887 21.82 132.555 21.82C134.199 21.82 135.399 22.84 135.399 24.352C135.399 25.696 134.427 26.668 133.047 26.848ZM139.323 25.564V26.392H137.619V31.888H136.635V21.112H137.619V25.564H139.323ZM144.862 23.152V28.216H147.118V23.152H144.862ZM143.938 28.996V22.372H148.03V28.996H143.938ZM151.762 21.124H152.698V31.876H151.762V26.188H150.31V31.348H149.386V21.364H150.31V25.384H151.762V21.124ZM163.425 21.136V27.724H162.441V21.136H163.425ZM157.089 22.852V26.116C157.653 26.104 158.253 26.08 158.841 26.044V22.852H157.089ZM161.373 25.828L161.433 26.548C159.249 26.92 156.705 26.956 154.881 26.956L154.785 26.14C155.193 26.14 155.649 26.14 156.129 26.128V22.852H155.073V22.06H160.845V22.852H159.789V25.996C160.329 25.948 160.857 25.9 161.373 25.828ZM159.873 31.108C161.517 31.108 162.501 30.664 162.501 29.92C162.501 29.164 161.517 28.72 159.873 28.72C158.229 28.72 157.245 29.164 157.245 29.92C157.245 30.664 158.229 31.108 159.873 31.108ZM159.873 27.952C162.105 27.952 163.485 28.66 163.485 29.92C163.485 31.156 162.105 31.876 159.873 31.876C157.641 31.876 156.261 31.156 156.261 29.92C156.261 28.66 157.641 27.952 159.873 27.952ZM174.44 21.124V29.176H173.456V21.124H174.44ZM172.592 26.716L172.664 27.424C170.384 27.748 167.828 27.82 165.824 27.82L165.68 27.016C166.616 27.016 167.66 27.004 168.716 26.968V25.444H166.64V21.82H171.764V22.624H167.624V24.652H171.836V25.444H169.7V26.932C170.696 26.884 171.668 26.824 172.592 26.716ZM168.464 30.844H174.8V31.648H167.48V28.648H168.464V30.844ZM180.651 22.24H185.571C185.571 25.36 184.455 28.228 180.591 30.136L180.063 29.356C182.043 28.396 183.279 27.16 183.939 25.72L180.267 26.068L180.099 25.204L184.251 24.928C184.455 24.328 184.551 23.704 184.599 23.044H180.651V22.24ZM187.695 21.124H188.679V31.888H187.695V21.124ZM194.354 22.42C193.31 22.42 192.578 22.972 192.578 23.776C192.578 24.604 193.31 25.144 194.354 25.144C195.398 25.144 196.13 24.604 196.13 23.776C196.13 22.972 195.398 22.42 194.354 22.42ZM194.354 25.9C192.758 25.9 191.654 25.048 191.654 23.776C191.654 22.516 192.758 21.664 194.354 21.664C195.95 21.664 197.054 22.516 197.054 23.776C197.054 25.048 195.95 25.9 194.354 25.9ZM197.93 26.44L197.99 27.184C196.934 27.352 195.854 27.46 194.798 27.52V31.564H193.814V27.568C192.794 27.604 191.822 27.616 190.97 27.616L190.85 26.788C192.878 26.788 195.59 26.776 197.93 26.44ZM198.746 21.136H199.73V31.9H198.746V29.248H196.31V28.48H198.746V21.136ZM210.553 26.284V27.088H203.161V22.108H210.445V22.924H204.133V26.284H210.553ZM201.913 29.62H211.681V30.436H201.913V29.62ZM220.5 23.008V22.132H214.188V21.436H221.472V23.68H215.184V24.604H221.664V25.312H214.212V23.008H220.5ZM215.124 30.04V31.036H221.844V31.744H214.152V29.356H220.536V28.456H214.128V27.748H221.508V30.04H215.124ZM212.964 26.128H222.72V26.872H212.964V26.128ZM33.7993 42.288H38.8393C38.8393 45.396 37.4113 48.132 33.8353 49.884L33.3073 49.08C36.1993 47.7 37.6393 45.636 37.8433 43.08H33.7993V42.288ZM41.0113 41.124H41.9953V51.888H41.0113V41.124ZM48.6664 46.44V44.472H45.6184V46.44H48.6664ZM49.6264 41.904V47.232H44.6464V41.904H45.6184V43.704H48.6664V41.904H49.6264ZM46.8424 48.276V50.844H53.0344V51.648H45.8584V48.276H46.8424ZM52.5544 44.388H54.1504V45.216H52.5544V49.032H51.5704V41.136H52.5544V44.388ZM60.1015 41.796C62.3335 41.796 64.0135 42.984 64.0135 44.772C64.0135 46.572 62.3335 47.748 60.1015 47.748C57.8695 47.748 56.1895 46.572 56.1895 44.772C56.1895 42.984 57.8695 41.796 60.1015 41.796ZM60.1015 42.6C58.4095 42.6 57.1255 43.476 57.1255 44.772C57.1255 46.08 58.4095 46.944 60.1015 46.944C61.8055 46.944 63.0775 46.08 63.0775 44.772C63.0775 43.476 61.8055 42.6 60.1015 42.6ZM55.2295 49.644H65.0095V50.46H55.2295V49.644ZM71.6445 49.752H76.0485V50.556H66.2685V49.752H70.6485V47.724H67.4925V44.4H73.8765V42.72H67.4685V41.916H74.8365V45.192H68.4645V46.932H75.0885V47.724H71.6445V49.752ZM84.7312 51H83.3335L86.4741 42.2727H87.9954L91.136 51H89.7383L87.271 43.858H87.2028L84.7312 51ZM84.9656 47.5824H89.4996V48.6903H84.9656V47.5824ZM93.7131 42.2727V51H92.3963V42.2727H93.7131ZM105.996 44.616V42.42H100.692V44.616H105.996ZM106.968 41.628V45.408H99.7317V41.628H106.968ZM100.692 48.576V50.844H107.148V51.648H99.7077V48.576H100.692ZM98.4597 46.632H108.24V47.424H103.92V49.596H102.936V47.424H98.4597V46.632ZM112.679 43.188V44.16C112.679 46.032 113.483 47.904 114.971 48.744L114.371 49.464C113.327 48.84 112.583 47.688 112.211 46.32C111.839 47.796 111.059 49.056 109.991 49.728L109.391 48.996C110.891 48.096 111.731 46.14 111.731 44.16V43.188H109.691V42.384H114.599V43.188H112.679ZM115.559 44.988V41.364H116.495V51.324H115.559V45.792H113.783V44.988H115.559ZM117.719 41.112H118.667V51.876H117.719V41.112ZM121.138 42.276H126.058C126.058 45.336 124.654 48.108 121.174 49.848L120.634 49.08C123.382 47.7 124.858 45.636 125.086 43.092H121.138V42.276ZM130.57 45.492V46.308H128.842V51.888H127.858V41.124H128.842V45.492H130.57ZM139.205 46.284V42.876H136.181V46.284H139.205ZM140.165 42.084V47.064H135.221V42.084H140.165ZM137.417 48.264V50.844H143.609V51.648H136.433V48.264H137.417ZM143.129 44.4H144.725V45.228H143.129V48.996H142.145V41.112H143.129V44.4ZM154.396 43.956V44.748H147.112V41.484H154.288V42.276H148.096V43.956H154.396ZM147.976 49.884V50.988H154.624V51.756H147.016V49.152H153.328V48.12H146.98V47.352H154.3V49.884H147.976ZM145.816 45.612H155.56V46.416H145.816V45.612ZM159.735 48.588C160.755 48.588 161.475 47.46 161.475 45.708C161.475 43.968 160.755 42.84 159.735 42.84C158.703 42.84 157.983 43.968 157.983 45.708C157.983 47.46 158.703 48.588 159.735 48.588ZM164.739 41.124H165.723V51.912H164.739V46.032H162.399C162.303 48.144 161.235 49.464 159.735 49.464C158.163 49.464 157.047 48 157.047 45.708C157.047 43.416 158.163 41.952 159.735 41.952C161.187 41.952 162.243 43.212 162.399 45.228H164.739V41.124ZM174.482 46.032L174.002 46.788C172.766 46.392 171.77 45.528 171.278 44.412C170.81 45.6 169.814 46.536 168.53 46.98L168.026 46.2C169.658 45.684 170.762 44.34 170.762 42.864V42.624H168.302V41.82H174.206V42.624H171.77V42.864C171.77 44.28 172.898 45.54 174.482 46.032ZM175.754 50.94V49.548H170.762V50.94H175.754ZM175.754 48.78V47.472H176.726V51.744H169.79V47.472H170.762V48.78H175.754ZM175.742 41.124H176.726V46.956H175.742V41.124ZM180.589 42.168V48.264C182.209 48.264 183.877 48.12 185.665 47.76L185.773 48.6C183.901 48.984 182.209 49.104 180.493 49.104H179.605V42.168H180.589ZM186.769 41.124H187.753V51.876H186.769V41.124ZM191.412 42.972V48.384C193.32 48.384 194.7 48.3 196.26 48.024L196.368 48.84C194.724 49.152 193.308 49.224 191.28 49.224H190.428V42.156H195.432V42.972H191.412ZM200.028 45.372V46.188H198.252V51.912H197.268V41.124H198.252V45.372H200.028Z" fill="black"/>
</g>
<path d="M210.95 52.85C207.463 52.85 203.7 50.6625 203.7 45.8625C203.7 41.0625 207.463 38.875 210.95 38.875C212.888 38.875 214.675 39.5125 216 40.675C217.438 41.95 218.2 43.75 218.2 45.8625C218.2 47.975 217.438 49.7625 216 51.0375C214.675 52.2 212.875 52.85 210.95 52.85Z" fill="url(#paint0_radial_337_1898)"/>
<path d="M216.936 41.7087C217.603 42.7837 217.95 44.0637 217.95 45.4875C217.95 47.6 217.188 49.3875 215.75 50.6625C214.425 51.825 212.625 52.475 210.7 52.475C208.443 52.475 206.07 51.5562 204.678 49.6075C206.023 51.815 208.551 52.85 210.95 52.85C212.875 52.85 214.675 52.2 216 51.0375C217.438 49.7625 218.2 47.975 218.2 45.8625C218.2 44.27 217.766 42.855 216.936 41.7087Z" fill="#EB8F00"/>
<path opacity="0.8" d="M206.406 49.1663C207.614 49.1663 208.594 48.1869 208.594 46.9788C208.594 45.7706 207.614 44.7913 206.406 44.7913C205.198 44.7913 204.219 45.7706 204.219 46.9788C204.219 48.1869 205.198 49.1663 206.406 49.1663Z" fill="url(#paint1_radial_337_1898)"/>
<path opacity="0.8" d="M215.594 49.1663C216.802 49.1663 217.781 48.1869 217.781 46.9788C217.781 45.7706 216.802 44.7913 215.594 44.7913C214.386 44.7913 213.406 45.7706 213.406 46.9788C213.406 48.1869 214.386 49.1663 215.594 49.1663Z" fill="url(#paint2_radial_337_1898)"/>
<path d="M209.12 45.1113C209.12 45.1113 209.114 45.1025 209.1 45.0863C209.087 45.07 209.07 45.0475 209.047 45.0188C209.029 44.9988 209.006 44.975 208.98 44.9475C208.954 44.9175 208.921 44.8863 208.889 44.8538C208.855 44.8225 208.82 44.79 208.784 44.7638C208.749 44.735 208.71 44.7138 208.679 44.6963C208.646 44.6763 208.616 44.6713 208.597 44.665C208.587 44.6613 208.579 44.6613 208.571 44.66C208.567 44.6613 208.564 44.6588 208.56 44.66L208.555 44.6613H208.552H208.551C208.566 44.6613 208.517 44.6625 208.585 44.66L208.516 44.6625C208.499 44.6625 208.51 44.6638 208.511 44.6638C208.515 44.6638 208.517 44.6638 208.52 44.6625C208.53 44.6588 208.52 44.6625 208.517 44.6625C208.514 44.6625 208.509 44.6638 208.504 44.6663C208.484 44.6725 208.454 44.6775 208.422 44.6975C208.391 44.715 208.352 44.7363 208.317 44.765C208.282 44.7925 208.246 44.8238 208.212 44.855C208.147 44.9188 208.09 44.9825 208.05 45.0288C208.009 45.0763 207.986 45.1038 207.986 45.1038L207.957 45.1375C207.786 45.3375 207.471 45.3713 207.255 45.2138C207.107 45.1063 207.044 44.9388 207.071 44.7788C207.071 44.7788 207.08 44.7275 207.105 44.6388C207.131 44.55 207.175 44.4238 207.261 44.275C207.347 44.1275 207.472 43.9538 207.684 43.795C207.787 43.7175 207.914 43.64 208.064 43.5875C208.1 43.5738 208.139 43.5613 208.179 43.5513C208.22 43.5413 208.252 43.53 208.309 43.5225L208.386 43.5113C208.41 43.5088 208.445 43.505 208.45 43.505L208.519 43.5L208.557 43.4988H208.561H208.569L208.585 43.5H208.615L208.679 43.5038C208.721 43.5075 208.762 43.515 208.804 43.5213C208.885 43.5363 208.966 43.5575 209.04 43.585C209.19 43.6375 209.316 43.7138 209.42 43.7925C209.631 43.9513 209.756 44.125 209.842 44.2725C209.886 44.3463 209.919 44.4163 209.942 44.4775C209.969 44.5363 209.987 44.5988 210.002 44.645C210.016 44.69 210.016 44.7138 210.022 44.735C210.026 44.755 210.027 44.7663 210.027 44.7663C210.074 45.0188 209.887 45.2575 209.614 45.2988C209.417 45.33 209.229 45.2513 209.12 45.1113Z" fill="#422B0D"/>
<path d="M214.057 45.1113C214.057 45.1113 214.051 45.1025 214.037 45.0863C214.025 45.07 214.007 45.0475 213.985 45.0188C213.966 44.9988 213.943 44.975 213.917 44.9475C213.891 44.9175 213.858 44.8863 213.826 44.8538C213.792 44.8225 213.757 44.79 213.721 44.7638C213.686 44.735 213.647 44.7138 213.616 44.6963C213.583 44.6763 213.553 44.6713 213.535 44.665C213.525 44.6613 213.516 44.6613 213.508 44.66C213.505 44.6613 213.501 44.6588 213.497 44.66L213.492 44.6613H213.49H213.488H213.487C213.502 44.6613 213.453 44.6625 213.521 44.66L213.452 44.6625C213.435 44.6625 213.446 44.6638 213.447 44.6638C213.451 44.6638 213.453 44.6638 213.456 44.6625C213.466 44.6588 213.456 44.6625 213.453 44.6625C213.45 44.6625 213.445 44.6638 213.44 44.6663C213.42 44.6725 213.39 44.6775 213.358 44.6975C213.327 44.715 213.288 44.7363 213.253 44.765C213.218 44.7925 213.182 44.8238 213.148 44.855C213.083 44.9188 213.026 44.9825 212.986 45.0288C212.945 45.0763 212.922 45.1038 212.922 45.1038L212.893 45.1375C212.722 45.3375 212.407 45.3713 212.191 45.2138C212.043 45.1063 211.98 44.9388 212.007 44.7788C212.007 44.7788 212.016 44.7275 212.041 44.6388C212.067 44.55 212.111 44.4238 212.197 44.275C212.283 44.1275 212.408 43.9538 212.62 43.795C212.723 43.7175 212.85 43.64 213 43.5875C213.036 43.5738 213.075 43.5613 213.115 43.5513C213.156 43.5413 213.188 43.53 213.245 43.5225L213.322 43.5113C213.346 43.5088 213.381 43.505 213.386 43.505L213.455 43.5L213.493 43.4988H213.497H213.505L213.521 43.5H213.551L213.615 43.5038C213.657 43.5075 213.698 43.515 213.74 43.5213C213.821 43.5363 213.902 43.5575 213.976 43.585C214.126 43.6375 214.252 43.7138 214.356 43.7925C214.567 43.9513 214.692 44.125 214.778 44.2725C214.822 44.3463 214.855 44.4163 214.878 44.4775C214.905 44.5363 214.923 44.5988 214.938 44.645C214.952 44.69 214.952 44.7138 214.958 44.735C214.962 44.755 214.963 44.7663 214.963 44.7663C215.01 45.0188 214.823 45.2575 214.55 45.2988C214.353 45.33 214.165 45.2513 214.057 45.1113Z" fill="#422B0D"/>
<path d="M211.002 49.7486C209.431 49.7486 208.189 49.0049 207.504 48.2086C207.435 48.1286 207.419 48.0211 207.462 47.9274C207.506 47.8311 207.601 47.7686 207.704 47.7686C207.75 47.7686 207.797 47.7811 207.839 47.8049C208.545 48.2124 209.731 48.7161 210.999 48.7161H211.019C212.287 48.7161 213.472 48.2111 214.179 47.8049C214.221 47.7811 214.267 47.7674 214.314 47.7686C214.416 47.7686 214.511 47.8311 214.555 47.9274C214.597 48.0211 214.582 48.1299 214.514 48.2086C213.829 49.0036 212.585 49.7486 211.015 49.7486" fill="#422B0D"/>
<defs>
<filter id="filter0_dd_337_1898" x="0" y="0" width="251" height="106.935" filterUnits="userSpaceOnUse" color-interpolation-filters="sRGB">
<feFlood flood-opacity="0" result="BackgroundImageFix"/>
<feColorMatrix in="SourceAlpha" type="matrix" values="0 0 0 0 0 0 0 0 0 0 0 0 0 0 0 0 0 0 127 0" result="hardAlpha"/>
<feMorphology radius="1" operator="erode" in="SourceAlpha" result="effect1_dropShadow_337_1898"/>
<feOffset dy="2"/>
<feGaussianBlur stdDeviation="2"/>
<feColorMatrix type="matrix" values="0 0 0 0 0 0 0 0 0 0 0 0 0 0 0 0 0 0 0.06 0"/>
<feBlend mode="normal" in2="BackgroundImageFix" result="effect1_dropShadow_337_1898"/>
<feColorMatrix in="SourceAlpha" type="matrix" values="0 0 0 0 0 0 0 0 0 0 0 0 0 0 0 0 0 0 127 0" result="hardAlpha"/>
<feMorphology radius="1" operator="erode" in="SourceAlpha" result="effect2_dropShadow_337_1898"/>
<feOffset dy="4"/>
<feGaussianBlur stdDeviation="3"/>
<feColorMatrix type="matrix" values="0 0 0 0 0 0 0 0 0 0 0 0 0 0 0 0 0 0 0.1 0"/>
<feBlend mode="normal" in2="effect1_dropShadow_337_1898" result="effect2_dropShadow_337_1898"/>
<feBlend mode="normal" in="SourceGraphic" in2="effect2_dropShadow_337_1898" result="shape"/>
</filter>
<radialGradient id="paint0_radial_337_1898" cx="0" cy="0" r="1" gradientUnits="userSpaceOnUse" gradientTransform="translate(210.95 45.8625) scale(7.11996)">
<stop offset="0.5" stop-color="#FDE030"/>
<stop offset="0.9188" stop-color="#F7C02B"/>
<stop offset="1" stop-color="#F4A223"/>
</radialGradient>
<radialGradient id="paint1_radial_337_1898" cx="0" cy="0" r="1" gradientUnits="userSpaceOnUse" gradientTransform="translate(206.406 46.9786) scale(2.37975 2.26065)">
<stop stop-color="#ED7770"/>
<stop offset="0.9" stop-color="#ED7770" stop-opacity="0"/>
</radialGradient>
<radialGradient id="paint2_radial_337_1898" cx="0" cy="0" r="1" gradientUnits="userSpaceOnUse" gradientTransform="translate(215.594 46.9786) scale(2.37975 2.26065)">
<stop stop-color="#ED7770"/>
<stop offset="0.9" stop-color="#ED7770" stop-opacity="0"/>
</radialGradient>
</defs>
</svg>
