<svg width="106" height="106" viewBox="0 0 106 106" fill="none" xmlns="http://www.w3.org/2000/svg">
<g id="Group">
<path id="Vector" d="M38 78C42.25 74.85 47.425 73 53 73C58.575 73 63.75 74.85 68 78" stroke="#0048FF" stroke-width="3" stroke-linecap="round"/>
<path id="Vector_2" d="M68 53C70.7614 53 73 49.6421 73 45.5C73 41.3579 70.7614 38 68 38C65.2386 38 63 41.3579 63 45.5C63 49.6421 65.2386 53 68 53Z" fill="#0048FF"/>
<path id="Vector_3" d="M38 53C40.7614 53 43 49.6421 43 45.5C43 41.3579 40.7614 38 38 38C35.2386 38 33 41.3579 33 45.5C33 49.6421 35.2386 53 38 53Z" fill="#0048FF"/>
<path id="Vector_4" opacity="0.5" d="M3 53C3 29.43 3 17.645 10.32 10.32C17.65 3 29.43 3 53 3C76.57 3 88.355 3 95.675 10.32C103 17.65 103 29.43 103 53C103 76.57 103 88.355 95.675 95.675C88.36 103 76.57 103 53 103C29.43 103 17.645 103 10.32 95.675C3 88.36 3 76.57 3 53Z" stroke="#0048FF" stroke-width="6"/>
</g>
</svg>
