<svg width="75" height="75" viewBox="0 0 75 75" fill="none" xmlns="http://www.w3.org/2000/svg">
<rect width="75" height="75" rx="10" fill="#E5383B"/>
<path d="M22.6463 21.5371C22.9286 21.243 23.2639 21.0096 23.633 20.8503C24.002 20.6911 24.3977 20.6091 24.7972 20.6091C25.1968 20.6091 25.5924 20.6911 25.9615 20.8503C26.3306 21.0096 26.6659 21.243 26.9482 21.5371L37.9872 33.0194L49.0261 21.5371C49.3086 21.2432 49.6439 21.0101 50.013 20.851C50.3821 20.6919 50.7776 20.6101 51.1771 20.6101C51.5766 20.6101 51.9721 20.6919 52.3412 20.851C52.7103 21.0101 53.0456 21.2432 53.3281 21.5371C53.6105 21.8311 53.8346 22.18 53.9875 22.564C54.1404 22.9481 54.219 23.3597 54.219 23.7753C54.219 24.191 54.1404 24.6026 53.9875 24.9866C53.8346 25.3706 53.6105 25.7196 53.3281 26.0135L42.2932 37.5L53.3281 48.9865C53.8985 49.5801 54.219 50.3852 54.219 51.2246C54.219 52.0641 53.8985 52.8692 53.3281 53.4628C52.7576 54.0564 51.9839 54.3899 51.1771 54.3899C50.3703 54.3899 49.5966 54.0564 49.0261 53.4628L37.9872 41.9806L26.9482 53.4628C26.3777 54.0564 25.604 54.3899 24.7972 54.3899C23.9905 54.3899 23.2167 54.0564 22.6463 53.4628C22.0758 52.8692 21.7553 52.0641 21.7553 51.2246C21.7553 50.3852 22.0758 49.5801 22.6463 48.9865L33.6812 37.5L22.6463 26.0135C22.3635 25.7197 22.1392 25.3708 21.9862 24.9868C21.8332 24.6027 21.7544 24.1911 21.7544 23.7753C21.7544 23.3596 21.8332 22.9479 21.9862 22.5639C22.1392 22.1798 22.3635 21.8309 22.6463 21.5371Z" fill="white"/>
</svg>
