<svg width="101" height="100" viewBox="0 0 101 100" fill="none" xmlns="http://www.w3.org/2000/svg">
<path d="M82.6667 37H39.3333C37.4924 37 36 38.4924 36 40.3333V73.6667C36 75.5076 37.4924 77 39.3333 77H82.6667C84.5076 77 86 75.5076 86 73.6667V40.3333C86 38.4924 84.5076 37 82.6667 37Z" fill="#2F88FF" stroke="black" stroke-width="4"/>
<path d="M49.3333 53.6667C51.1743 53.6667 52.6667 52.1743 52.6667 50.3333C52.6667 48.4924 51.1743 47 49.3333 47C47.4924 47 46 48.4924 46 50.3333C46 52.1743 47.4924 53.6667 49.3333 53.6667Z" fill="white"/>
<path d="M72.6663 53.6667C74.5073 53.6667 75.9997 52.1743 75.9997 50.3333C75.9997 48.4924 74.5073 47 72.6663 47C70.8254 47 69.333 48.4924 69.333 50.3333C69.333 52.1743 70.8254 53.6667 72.6663 53.6667Z" fill="white"/>
<path d="M54.3333 60.3335C52.4923 60.3335 51 61.8258 51 63.6668C51 65.5078 52.4923 67.0002 54.3333 67.0002V60.3335ZM67.6667 67.0002C69.5077 67.0002 71 65.5078 71 63.6668C71 61.8258 69.5077 60.3335 67.6667 60.3335V67.0002ZM54.3333 67.0002H67.6667V60.3335H54.3333V67.0002Z" fill="white"/>
<path d="M61 23.6665V36.9998" stroke="black" stroke-width="4" stroke-linecap="round" stroke-linejoin="round"/>
<path d="M27.6665 50.3335V63.6668" stroke="black" stroke-width="4" stroke-linecap="round" stroke-linejoin="round"/>
<path d="M94.333 50.3335V63.6668" stroke="black" stroke-width="4" stroke-linecap="round" stroke-linejoin="round"/>
<path d="M60.9998 23.6667C62.8408 23.6667 64.3332 22.1743 64.3332 20.3333C64.3332 18.4924 62.8408 17 60.9998 17C59.1589 17 57.6665 18.4924 57.6665 20.3333C57.6665 22.1743 59.1589 23.6667 60.9998 23.6667Z" stroke="black" stroke-width="4"/>
</svg>
