<svg width="84" height="84" viewBox="0 0 84 84" fill="none" xmlns="http://www.w3.org/2000/svg">
<g id="Group">
<path id="Vector" d="M58.6666 33.6667C58.6666 38.0869 56.9106 42.3262 53.785 45.4518C50.6594 48.5774 46.4202 50.3333 41.9999 50.3333C37.5796 50.3333 33.3404 48.5774 30.2148 45.4518C27.0892 42.3262 25.3333 38.0869 25.3333 33.6667C25.3333 29.2464 27.0892 25.0072 30.2148 21.8816C33.3404 18.7559 37.5796 17 41.9999 17C46.4202 17 50.6594 18.7559 53.785 21.8816C56.9106 25.0072 58.6666 29.2464 58.6666 33.6667Z" fill="#E9EDC9"/>
<path id="Vector_2" fill-rule="evenodd" clip-rule="evenodd" d="M40.2999 83.6335C18.077 82.7418 0.333252 64.4418 0.333252 42.0002C0.333252 18.9877 18.9874 0.333496 41.9999 0.333496C65.0124 0.333496 83.6666 18.9877 83.6666 42.0002C83.6666 65.0127 65.0124 83.6668 41.9999 83.6668C41.8096 83.6681 41.6194 83.6681 41.4291 83.6668C41.052 83.6668 40.6749 83.6543 40.2999 83.6335ZM15.2624 68.2918C14.9509 67.3972 14.8448 66.4439 14.9522 65.5026C15.0595 64.5614 15.3774 63.6564 15.8824 62.8549C16.3873 62.0533 17.0663 61.3758 17.8689 60.8726C18.6716 60.3694 19.5772 60.0534 20.5187 59.9481C36.7603 58.1502 47.3395 58.3127 63.502 59.9856C64.4447 60.0838 65.3526 60.3958 66.1565 60.8978C66.9604 61.3999 67.6392 62.0788 68.1411 62.8829C68.6429 63.6869 68.9547 64.5949 69.0526 65.5376C69.1506 66.4804 69.0321 67.4331 68.7062 68.3231C75.6331 61.3145 79.5123 51.8542 79.4999 42.0002C79.4999 21.2897 62.7103 4.50016 41.9999 4.50016C21.2895 4.50016 4.49992 21.2897 4.49992 42.0002C4.49992 52.2418 8.60617 61.5252 15.2624 68.2918Z" fill="#E9EDC9"/>
</g>
</svg>
