<svg width="39" height="34" viewBox="0 0 39 34" fill="none" xmlns="http://www.w3.org/2000/svg">
<path d="M8.21078 12.7223C8.20864 12.7727 8.21685 12.8231 8.23489 12.8703C8.25294 12.9174 8.28044 12.9604 8.31571 12.9966C8.35098 13.0327 8.39327 13.0613 8.43999 13.0805C8.4867 13.0997 8.53685 13.1091 8.58734 13.1082H9.87641C10.092 13.1082 10.2639 12.9316 10.292 12.7176C10.4327 11.6926 11.1358 10.9457 12.3889 10.9457C13.4608 10.9457 14.442 11.4816 14.442 12.7707C14.442 13.7629 13.8577 14.2191 12.9342 14.9129C11.8827 15.677 11.0498 16.5691 11.1092 18.0176L11.1139 18.3566C11.1155 18.4592 11.1574 18.5569 11.2305 18.6288C11.3036 18.7007 11.402 18.741 11.5045 18.741H12.7717C12.8753 18.741 12.9747 18.6999 13.0479 18.6266C13.1212 18.5533 13.1623 18.454 13.1623 18.3504V18.1863C13.1623 17.0645 13.5889 16.7379 14.7405 15.8645C15.692 15.141 16.6842 14.3379 16.6842 12.652C16.6842 10.291 14.6905 9.15039 12.5077 9.15039C10.528 9.15039 8.35922 10.0723 8.21078 12.7223ZM10.6436 21.727C10.6436 22.5598 11.3077 23.1754 12.2217 23.1754C13.1733 23.1754 13.828 22.5598 13.828 21.727C13.828 20.8645 13.1717 20.2582 12.2202 20.2582C11.3077 20.2582 10.6436 20.8645 10.6436 21.727Z" fill="#C1121F"/>
<path d="M18.9399 21.6924C18.9775 21.4573 19.061 21.232 19.1857 21.0293C19.3104 20.8265 19.4738 20.6503 19.6665 20.5107C19.8593 20.3711 20.0777 20.2708 20.3093 20.2156C20.5408 20.1604 20.7809 20.1514 21.016 20.189C21.251 20.2266 21.4763 20.3101 21.6791 20.4348C21.8818 20.5595 22.058 20.7229 22.1976 20.9157C22.3372 21.1085 22.4375 21.3269 22.4927 21.5584C22.5479 21.7899 22.5569 22.0301 22.5193 22.2651C22.4434 22.7398 22.182 23.1648 21.7926 23.4468C21.4033 23.7287 20.9179 23.8444 20.4432 23.7685C19.9686 23.6925 19.5435 23.4311 19.2616 23.0418C18.9796 22.6524 18.8639 22.167 18.9399 21.6924ZM20.8348 10.9731C20.8471 10.7435 20.9076 10.519 21.0122 10.3143C21.1168 10.1095 21.2634 9.92907 21.4422 9.78461C21.6211 9.64015 21.8284 9.53492 22.0506 9.47573C22.2728 9.41654 22.5049 9.40473 22.732 9.44106C22.959 9.47739 23.1759 9.56104 23.3685 9.6866C23.5611 9.81215 23.7252 9.97681 23.8501 10.1699C23.975 10.3629 24.0579 10.5801 24.0934 10.8073C24.1289 11.0344 24.1163 11.2665 24.0564 11.4885L22.4257 17.6649C22.3613 17.9042 22.2106 18.1111 22.0026 18.2458C21.7946 18.3805 21.5441 18.4333 21.2995 18.3942C21.0548 18.355 20.8333 18.2266 20.6777 18.0338C20.5221 17.841 20.4435 17.5973 20.457 17.3499L20.8348 10.9731Z" fill="#F4A223"/>
</svg>
