<svg width="50" height="50" viewBox="0 0 50 50" fill="none" xmlns="http://www.w3.org/2000/svg">
<g id="smiley">
<g id="gold">
<path id="face" d="M24.8438 46.4062C13.9453 46.4062 2.1875 39.5703 2.1875 24.5703C2.1875 9.57031 13.9453 2.73438 24.8438 2.73438C30.8984 2.73438 36.4844 4.72656 40.625 8.35938C45.1172 12.3438 47.5 17.9688 47.5 24.5703C47.5 31.1719 45.1172 36.7578 40.625 40.7422C36.4844 44.375 30.8594 46.4062 24.8438 46.4062Z" fill="url(#paint0_radial_1_232)"/>
<path id="Vector" d="M43.5508 11.5898C45.6328 14.9492 46.7188 18.9492 46.7188 23.3984C46.7188 30 44.3359 35.5859 39.8438 39.5703C35.7031 43.2031 30.0781 45.2344 24.0625 45.2344C17.0078 45.2344 9.60938 42.3633 5.24219 36.2734C9.44531 43.1719 17.3516 46.4062 24.8438 46.4062C30.8594 46.4062 36.4844 44.375 40.625 40.7422C45.1172 36.7578 47.5 31.1719 47.5 24.5703C47.5 19.5938 46.1445 15.1719 43.5508 11.5898Z" fill="#EB8F00"/>
</g>
<g id="facial_expressions">
<g id="big-eyes-grinning-face">
<g id="eyes">
<path id="Vector_2" d="M32.2852 13.1328C33.7734 13.1328 35.1211 15.3398 35.1211 18.9922C35.1211 22.6445 33.7734 24.8516 32.2852 24.8516C30.8008 24.8516 29.4531 22.6484 29.4531 18.9922C29.4531 15.3359 30.8008 13.1328 32.2852 13.1328Z" fill="#422B0D"/>
<path id="Vector_3" d="M17.6836 13.1328C16.1016 13.1328 14.6602 15.3398 14.6602 18.9922C14.6602 22.6445 16.1016 24.8516 17.6836 24.8516C19.2695 24.8516 20.7109 22.6484 20.7109 18.9922C20.7109 15.3359 19.2695 13.1328 17.6836 13.1328Z" fill="#422B0D"/>
</g>
</g>
<g id="peepers">
<path id="Vector_4" d="M17.5977 14.5665C17.125 14.2814 16.5117 14.4376 16.2266 14.9103C16.2188 14.9259 16.207 14.9415 16.1992 14.9571C15.8399 15.3751 15.8828 16.0079 16.3008 16.3673C16.3125 16.379 16.3242 16.3868 16.3399 16.3986C16.8086 16.6837 17.4219 16.5314 17.707 16.0626C17.7188 16.0431 17.7266 16.0275 17.7383 16.0079C18.0977 15.5861 18.0508 14.9532 17.6289 14.5939C17.6172 14.5821 17.6094 14.5743 17.5977 14.5665Z" fill="#896024"/>
</g>
<g id="peepers-2">
<path id="Vector_5" d="M32.5039 14.5665C32.0273 14.2853 31.4102 14.4415 31.1289 14.9181C31.1211 14.9298 31.1133 14.9454 31.1055 14.9572C30.75 15.3829 30.8086 16.0118 31.2344 16.3673C31.2383 16.3712 31.2461 16.3751 31.25 16.379C31.7187 16.6642 32.332 16.5118 32.6172 16.0431C32.6289 16.0236 32.6367 16.0079 32.6484 15.9884C33.0039 15.5626 32.9453 14.9337 32.5195 14.5782C32.5156 14.5743 32.5078 14.5704 32.5039 14.5665Z" fill="#896024"/>
</g>
<path id="Vector_6" d="M39.8711 27.9764C39.3242 26.9882 38.1367 26.5546 37.0821 26.953C33.0742 28.121 28.918 28.703 24.7422 28.6835C20.5664 28.703 16.4102 28.121 12.4024 26.953C11.3516 26.5546 10.1641 26.9843 9.61721 27.9686C9.08596 28.9491 9.46878 30.0858 9.91799 31.0663C12.4258 36.5741 17.9531 39.871 24.711 39.8905H24.7735C31.5313 39.8905 37.0586 36.5741 39.5703 31.0663C40.0157 30.078 40.4024 28.9569 39.8711 27.9764Z" fill="#422B0D"/>
<path id="Vector_7" d="M30.9961 38.3357C30.8516 38.2029 30.7031 38.0818 30.5547 37.9451C28.9609 36.5428 26.8984 35.7889 24.7734 35.8318C22.5859 35.7967 20.457 36.5232 18.75 37.8904C18.6016 38.0115 18.4453 38.1287 18.3008 38.281C18.1562 38.4334 18.0781 38.5428 17.9844 38.6717C20.1328 39.5115 22.4219 39.9412 24.7305 39.9295H24.793C27.0039 39.9295 29.1953 39.5349 31.2656 38.7576C31.1875 38.6092 31.0977 38.4685 30.9961 38.3357Z" fill="#ED7770"/>
<path id="Vector_8" d="M37.082 26.9532C33.0742 28.1212 28.918 28.7032 24.7422 28.6837C20.5664 28.7032 16.4102 28.1212 12.4023 26.9532C11.3516 26.5548 10.1641 26.9844 9.61719 27.9688C9.53906 28.1173 9.47656 28.2735 9.4375 28.4337C9.56641 28.5001 9.71484 28.5665 9.89062 28.6368C14.5938 30.9923 19.793 32.1876 25.0508 32.1251C30.0937 32.1837 35.0781 31.086 39.6328 28.9219C39.8164 28.8438 39.9687 28.7696 40.1055 28.6993C40.0742 28.4454 39.9922 28.1954 39.8711 27.9688C39.3242 26.9844 38.1367 26.5508 37.082 26.9532Z" fill="white"/>
<path id="Vector_9" d="M39.8867 27.9803C39.3321 26.9921 38.1406 26.5546 37.0781 26.953C33.0703 28.121 28.9141 28.703 24.7422 28.6835C20.5664 28.703 16.4102 28.121 12.4024 26.953C11.3516 26.5546 10.1641 26.9843 9.61721 27.9686C9.08596 28.9491 9.46878 30.0858 9.91799 31.0663C10.1172 31.5077 10.3399 31.9413 10.586 32.3593C10.586 32.3593 9.76565 29.3202 10.4766 28.4374C10.7188 28.0624 11.125 27.828 11.5703 27.8046C11.7539 27.8046 11.9336 27.8358 12.1094 27.8905C16.1875 29.0897 20.418 29.6952 24.6719 29.6874H24.8086C29.0625 29.6952 33.293 29.0897 37.3711 27.8905C37.5469 27.8358 37.7266 27.8046 37.9102 27.8046C38.3555 27.828 38.7657 28.0624 39.0078 28.4374C39.7305 29.3202 38.8985 32.371 38.8985 32.371C39.1407 31.953 39.3828 31.5233 39.586 31.078C40.0313 30.0975 40.418 28.9647 39.8867 27.9803Z" fill="#EB8F00"/>
</g>
</g>
<defs>
<radialGradient id="paint0_radial_1_232" cx="0" cy="0" r="1" gradientUnits="userSpaceOnUse" gradientTransform="translate(24.8437 24.5703) scale(22.2499)">
<stop offset="0.5" stop-color="#FDE030"/>
<stop offset="0.92" stop-color="#F7C02B"/>
<stop offset="1" stop-color="#F4A223"/>
</radialGradient>
</defs>
</svg>
