<svg width="75" height="75" viewBox="0 0 75 75" fill="none" xmlns="http://www.w3.org/2000/svg">
<g id="Component 1">
<rect id="Rectangle 32" width="75" height="75" rx="10" fill="#3A86FF"/>
<g id="Vector">
<mask id="path-2-inside-1_1_1045" fill="white">
<path d="M37.9871 23.0212C34.2967 23.0212 30.7575 24.5467 28.148 27.262C25.5385 29.9773 24.0725 33.66 24.0725 37.5C24.0725 41.34 25.5385 45.0227 28.148 47.738C30.7575 50.4533 34.2967 51.9788 37.9871 51.9788C41.6775 51.9788 45.2168 50.4533 47.8263 47.738C50.4358 45.0227 51.9018 41.34 51.9018 37.5C51.9018 33.66 50.4358 29.9773 47.8263 27.262C45.2168 24.5467 41.6775 23.0212 37.9871 23.0212ZM57.4676 37.5C57.4676 42.876 55.4152 48.0318 51.7619 51.8333C48.1086 55.6347 43.1537 57.7703 37.9871 57.7703C32.8206 57.7703 27.8656 55.6347 24.2123 51.8333C20.559 48.0318 18.5066 42.876 18.5066 37.5C18.5066 32.124 20.559 26.9682 24.2123 23.1668C27.8656 19.3653 32.8206 17.2297 37.9871 17.2297C43.1537 17.2297 48.1086 19.3653 51.7619 23.1668C55.4152 26.9682 57.4676 32.124 57.4676 37.5Z"/>
</mask>
<path d="M37.9871 23.0212C34.2967 23.0212 30.7575 24.5467 28.148 27.262C25.5385 29.9773 24.0725 33.66 24.0725 37.5C24.0725 41.34 25.5385 45.0227 28.148 47.738C30.7575 50.4533 34.2967 51.9788 37.9871 51.9788C41.6775 51.9788 45.2168 50.4533 47.8263 47.738C50.4358 45.0227 51.9018 41.34 51.9018 37.5C51.9018 33.66 50.4358 29.9773 47.8263 27.262C45.2168 24.5467 41.6775 23.0212 37.9871 23.0212ZM57.4676 37.5C57.4676 42.876 55.4152 48.0318 51.7619 51.8333C48.1086 55.6347 43.1537 57.7703 37.9871 57.7703C32.8206 57.7703 27.8656 55.6347 24.2123 51.8333C20.559 48.0318 18.5066 42.876 18.5066 37.5C18.5066 32.124 20.559 26.9682 24.2123 23.1668C27.8656 19.3653 32.8206 17.2297 37.9871 17.2297C43.1537 17.2297 48.1086 19.3653 51.7619 23.1668C55.4152 26.9682 57.4676 32.124 57.4676 37.5Z" fill="white"/>
<path d="M24.0725 37.5H16.0725H24.0725ZM37.9871 51.9788V59.9788V51.9788ZM18.5066 37.5H10.5066H18.5066ZM37.9871 17.2297V9.22974V17.2297ZM37.9871 15.0212C32.0701 15.0212 26.4629 17.47 22.3799 21.7186L33.9161 32.8053C35.052 31.6233 36.5233 31.0212 37.9871 31.0212V15.0212ZM22.3799 21.7186C18.3072 25.9564 16.0725 31.6386 16.0725 37.5H32.0725C32.0725 35.6814 32.7697 33.9982 33.9161 32.8053L22.3799 21.7186ZM16.0725 37.5C16.0725 43.3614 18.3072 49.0436 22.3799 53.2814L33.9161 42.1947C32.7697 41.0019 32.0725 39.3186 32.0725 37.5H16.0725ZM22.3799 53.2814C26.4629 57.53 32.0701 59.9788 37.9871 59.9788V43.9788C36.5233 43.9788 35.052 43.3767 33.9161 42.1947L22.3799 53.2814ZM37.9871 59.9788C43.9041 59.9788 49.5113 57.53 53.5944 53.2814L42.0582 42.1947C40.9222 43.3767 39.4509 43.9788 37.9871 43.9788V59.9788ZM53.5944 53.2814C57.667 49.0436 59.9018 43.3614 59.9018 37.5H43.9018C43.9018 39.3186 43.2045 41.0019 42.0582 42.1947L53.5944 53.2814ZM59.9018 37.5C59.9018 31.6386 57.667 25.9564 53.5944 21.7186L42.0582 32.8053C43.2045 33.9982 43.9018 35.6814 43.9018 37.5H59.9018ZM53.5944 21.7186C49.5113 17.47 43.9041 15.0212 37.9871 15.0212V31.0212C39.4509 31.0212 40.9222 31.6233 42.0582 32.8053L53.5944 21.7186ZM49.4676 37.5C49.4676 40.8546 48.184 44.0109 45.9938 46.2899L57.53 57.3766C62.6465 52.0527 65.4676 44.8974 65.4676 37.5H49.4676ZM45.9938 46.2899C43.8141 48.558 40.927 49.7703 37.9871 49.7703V65.7703C45.3803 65.7703 52.4032 62.7113 57.53 57.3766L45.9938 46.2899ZM37.9871 49.7703C35.0472 49.7703 32.1602 48.558 29.9804 46.2899L18.4442 57.3766C23.5711 62.7113 30.5939 65.7703 37.9871 65.7703V49.7703ZM29.9804 46.2899C27.7903 44.0109 26.5066 40.8546 26.5066 37.5H10.5066C10.5066 44.8974 13.3277 52.0527 18.4442 57.3766L29.9804 46.2899ZM26.5066 37.5C26.5066 34.1454 27.7903 30.9891 29.9804 28.7101L18.4442 17.6234C13.3277 22.9473 10.5066 30.1026 10.5066 37.5H26.5066ZM29.9804 28.7101C32.1602 26.442 35.0472 25.2297 37.9871 25.2297V9.22974C30.5939 9.22974 23.5711 12.2887 18.4442 17.6234L29.9804 28.7101ZM37.9871 25.2297C40.927 25.2297 43.8141 26.442 45.9938 28.7101L57.53 17.6234C52.4032 12.2887 45.3803 9.22974 37.9871 9.22974V25.2297ZM45.9938 28.7101C48.184 30.9891 49.4676 34.1454 49.4676 37.5H65.4676C65.4676 30.1026 62.6465 22.9473 57.53 17.6234L45.9938 28.7101Z" fill="white" mask="url(#path-2-inside-1_1_1045)"/>
</g>
</g>
</svg>
